<svg id="eBIUQDH9dON1" xmlns="http://www.w3.org/2000/svg" xmlns:xlink="http://www.w3.org/1999/xlink" viewBox="0 0 835 240" shape-rendering="geometricPrecision" text-rendering="geometricPrecision">
<style><![CDATA[
#eBIUQDH9dON9_ts {animation: eBIUQDH9dON9_ts__ts 5000ms linear 1 normal forwards}@keyframes eBIUQDH9dON9_ts__ts { 0% {transform: translate(96.071582px,282.291711px) scale(1.5,1)} 100% {transform: translate(96.071582px,282.291711px) scale(1,1)}} #eBIUQDH9dON10_ts {animation: eBIUQDH9dON10_ts__ts 5000ms linear 1 normal forwards}@keyframes eBIUQDH9dON10_ts__ts { 0% {transform: translate(682.970908px,-33px) scale(2,1)} 100% {transform: translate(682.970908px,-33px) scale(1.798528,1)}}
]]></style>
<g clip-path="url(#eBIUQDH9dON11)"><g transform="translate(0-1.5)"><rect width="835" height="240" rx="0" ry="0" fill="#fff"/><rect width="835" height="240" rx="0" ry="0" fill="#f9fff9"/><path d="M107.536,115.6c-4.288,0-8.08-.832-11.376-2.496-3.264-1.664-5.824-4.064-7.68-7.2-1.856-3.168-2.784-7.008-2.784-11.52v-1.008c0-4.48.88-8.288,2.64-11.424c1.76-3.168,4.208-5.584,7.344-7.248c3.168-1.664,6.832-2.496,10.992-2.496h1.008c3.968,0,7.456.816,10.464,2.448c3.008,1.6,5.36,3.888,7.056,6.864s2.544,6.544,2.544,10.704v1.632c0,4.064-.752,7.104-2.256,9.12-1.472,2.016-3.568,3.024-6.288,3.024h-1.584c-1.312,0-2.304-.288-2.976-.864-.672-.608-1.008-1.408-1.008-2.4v-.48h-.672c-.256.672-.672,1.344-1.248,2.016-.544.64-1.296,1.184-2.256,1.632-.928.448-2.128.672-3.6.672-1.888,0-3.584-.512-5.088-1.536s-2.688-2.432-3.552-4.224c-.832-1.792-1.248-3.792-1.248-6v-.864c0-2.272.416-4.288,1.248-6.048s1.984-3.152,3.456-4.176s3.152-1.536,5.04-1.536c1.44,0,2.624.208,3.552.624.928.384,1.664.88,2.208,1.488s.976,1.216,1.296,1.824h.672v-3.36h3.696v18.624c0,.48.08.816.24,1.008.192.192.512.288.96.288h.576c1.792,0,3.072-.688,3.84-2.064.8-1.408,1.2-3.728,1.2-6.96v-1.344c0-3.552-.656-6.56-1.968-9.024-1.312-2.496-3.184-4.4-5.616-5.712s-5.344-1.968-8.736-1.968h-.816c-3.488,0-6.528.672-9.12,2.016s-4.608,3.344-6.048,6-2.16,5.952-2.16,9.888v.768c0,3.904.752,7.2,2.256,9.888c1.536,2.656,3.68,4.656,6.432,6s5.936,2.016,9.552,2.016h9.408v3.408h-9.6Zm-.96-12.432c2.016,0,3.664-.752,4.944-2.256s1.92-3.6,1.92-6.288v-.48c0-2.688-.64-4.784-1.92-6.288-1.28-1.536-2.928-2.304-4.944-2.304s-3.664.768-4.944,2.304-1.92,3.616-1.92,6.24v.576c0,2.592.64,4.656,1.92,6.192s2.928,2.304,4.944,2.304ZM135.25,115.6v-33.072h3.696v3.888h.672c.608-1.184,1.584-2.24,2.928-3.168c1.376-.928,3.28-1.392,5.712-1.392c2.016,0,3.856.496,5.52,1.488c1.696.96,3.04,2.336,4.032,4.128c1.024,1.792,1.536,3.952,1.536,6.48v.624c0,2.496-.496,4.656-1.488,6.48s-2.336,3.216-4.032,4.176c-1.664.96-3.52,1.44-5.568,1.44-1.632,0-3.024-.224-4.176-.672-1.12-.416-2.032-.96-2.736-1.632s-1.248-1.36-1.632-2.064h-.672v13.296h-3.792Zm12-12.288c2.432,0,4.4-.768,5.904-2.304c1.536-1.568,2.304-3.744,2.304-6.528v-.432c0-2.784-.768-4.944-2.304-6.48-1.504-1.568-3.472-2.352-5.904-2.352-2.4,0-4.384.784-5.952,2.352-1.536,1.536-2.304,3.696-2.304,6.48v.432c0,2.784.768,4.96,2.304,6.528c1.568,1.536,3.552,2.304,5.952,2.304ZM166.14,106v-23.472h3.792v23.472h-3.792Zm1.92-27.12c-.832,0-1.536-.272-2.112-.816-.544-.544-.816-1.232-.816-2.064c0-.864.272-1.568.816-2.112.576-.544,1.28-.816,2.112-.816s1.52.272,2.064.816.816,1.248.816,2.112c0,.832-.272,1.52-.816,2.064s-1.232.816-2.064.816ZM177.906,106v-33.6h3.792v33.6h-3.792Zm11.766,0v-33.6h3.792v33.6h-3.792Zm18.965.672c-1.632,0-3.12-.288-4.464-.864s-2.4-1.408-3.168-2.496-1.152-2.416-1.152-3.984c0-1.6.384-2.912,1.152-3.936.768-1.056,1.824-1.84,3.168-2.352c1.344-.544,2.848-.816,4.512-.816h7.92v-1.728c0-1.664-.496-2.976-1.488-3.936-.96-.96-2.4-1.44-4.32-1.44-1.888,0-3.36.464-4.416,1.392-1.056.896-1.776,2.112-2.16,3.648l-3.552-1.152c.384-1.312.992-2.496,1.824-3.552.832-1.088,1.936-1.952,3.312-2.592c1.408-.672,3.088-1.008,5.04-1.008c3.008,0,5.344.784,7.008,2.352c1.664,1.536,2.496,3.712,2.496,6.528v10.608c0,.96.448,1.44,1.344,1.44h2.16v3.216h-3.312c-1.056,0-1.904-.288-2.544-.864-.64-.608-.96-1.408-.96-2.4v-.24h-.576c-.352.608-.832,1.248-1.44,1.92-.576.64-1.376,1.168-2.4,1.584-1.024.448-2.352.672-3.984.672Zm.432-3.264c2.24,0,4.048-.656,5.424-1.968c1.408-1.344,2.112-3.216,2.112-5.616v-.528h-7.776c-1.504,0-2.752.336-3.744,1.008-.96.64-1.44,1.616-1.44,2.928s.496,2.336,1.488,3.072c1.024.736,2.336,1.104,3.936,1.104ZM229.047,106v-23.472h3.696v2.88h.672c.416-1.024,1.056-1.776,1.92-2.256s2-.72,3.408-.72h2.784v3.456h-3.024c-1.696,0-3.072.48-4.128,1.44-1.024.928-1.536,2.384-1.536,4.368v14.304h-3.792Zm12.469,9.6l14.112-43.2h3.792l-14.112,43.2h-3.792Zm31.018-8.928c-2.912,0-5.376-.672-7.392-2.016-1.984-1.344-3.184-3.472-3.6-6.384l3.6-.816c.256,1.536.736,2.752,1.44,3.648.704.864,1.568,1.488,2.592,1.872c1.056.352,2.176.528,3.36.528c1.76,0,3.152-.352,4.176-1.056s1.536-1.648,1.536-2.832c0-1.216-.496-2.064-1.488-2.544-.96-.512-2.288-.928-3.984-1.248l-1.968-.336c-1.504-.256-2.88-.656-4.128-1.2s-2.24-1.28-2.976-2.208-1.104-2.096-1.104-3.504c0-2.112.816-3.76,2.448-4.944s3.792-1.776,6.48-1.776c2.656,0,4.8.608,6.432,1.824c1.664,1.184,2.736,2.864,3.216,5.04l-3.552.912c-.288-1.696-.976-2.88-2.064-3.552-1.088-.704-2.432-1.056-4.032-1.056s-2.864.304-3.792.912c-.928.576-1.392,1.44-1.392,2.592c0,1.12.432,1.952,1.296,2.496.896.512,2.08.896,3.552,1.152l1.968.336c1.664.288,3.152.688,4.464,1.2c1.344.48,2.4,1.184,3.168,2.112.8.928,1.2,2.144,1.2,3.648c0,2.304-.864,4.08-2.592,5.328-1.696,1.248-3.984,1.872-6.864,1.872Zm25.792,0c-2.016,0-3.872-.48-5.568-1.44s-3.04-2.352-4.032-4.176-1.488-3.984-1.488-6.48v-.624c0-2.496.496-4.64,1.488-6.432.992-1.824,2.32-3.216,3.984-4.176c1.696-.992,3.568-1.488,5.616-1.488c1.632,0,3.008.224,4.128.672c1.152.416,2.08.96,2.784,1.632.704.64,1.248,1.328,1.632,2.064h.672v-13.824h3.792v33.6h-3.696v-3.888h-.672c-.64,1.184-1.632,2.24-2.976,3.168s-3.232,1.392-5.664,1.392Zm1.008-3.36c2.432,0,4.4-.768,5.904-2.304c1.536-1.568,2.304-3.744,2.304-6.528v-.432c0-2.784-.768-4.944-2.304-6.48-1.504-1.568-3.472-2.352-5.904-2.352-2.4,0-4.384.784-5.952,2.352-1.536,1.536-2.304,3.696-2.304,6.48v.432c0,2.784.768,4.96,2.304,6.528c1.568,1.536,3.552,2.304,5.952,2.304ZM319.281,106v-33.6h3.792v19.776h.672l10.752-9.648h5.28L326.769,93.952L340.161,106h-5.232L323.745,95.776h-.672v10.224h-3.792Z" fill="#014804"/><path d="M91.072,155v-22.464h-8.1v-2.736h19.224v2.736h-8.1v22.464h-3.024Zm15.08,0v-25.2h2.844v10.404h.504c.24-.528.6-1.02,1.08-1.476.504-.48,1.14-.876,1.908-1.188.792-.312,1.788-.468,2.988-.468c1.32,0,2.496.288,3.528.864c1.056.552,1.896,1.368,2.52,2.448.624,1.056.936,2.376.936,3.96v10.656h-2.844v-10.44c0-1.752-.444-3.024-1.332-3.816-.864-.792-2.04-1.188-3.528-1.188-1.704,0-3.096.552-4.176,1.656-1.056,1.104-1.584,2.748-1.584,4.932v8.856h-2.844Zm30.142.504c-1.776,0-3.336-.372-4.68-1.116-1.344-.768-2.388-1.836-3.132-3.204s-1.116-2.952-1.116-4.752v-.432c0-1.824.372-3.42,1.116-4.788s1.776-2.424,3.096-3.168c1.32-.768,2.832-1.152,4.536-1.152c1.656,0,3.12.36,4.392,1.08c1.272.696,2.268,1.704,2.988,3.024s1.08,2.868,1.08,4.644v1.296h-14.364c.072,1.896.684,3.384,1.836,4.464c1.152,1.056,2.592,1.584,4.32,1.584c1.512,0,2.676-.348,3.492-1.044s1.44-1.524,1.872-2.484l2.448,1.188c-.36.744-.864,1.488-1.512,2.232-.624.744-1.452,1.368-2.484,1.872-1.008.504-2.304.756-3.888.756Zm-6.048-10.908h11.448c-.096-1.632-.66-2.904-1.692-3.816-1.008-.912-2.304-1.368-3.888-1.368-1.608,0-2.928.456-3.96,1.368s-1.668,2.184-1.908,3.816ZM158.781,155v-25.2h2.844v10.404h.504c.24-.528.6-1.02,1.08-1.476.504-.48,1.14-.876,1.908-1.188.792-.312,1.788-.468,2.988-.468c1.32,0,2.496.288,3.528.864c1.056.552,1.896,1.368,2.52,2.448.624,1.056.936,2.376.936,3.96v10.656h-2.844v-10.44c0-1.752-.444-3.024-1.332-3.816-.864-.792-2.04-1.188-3.528-1.188-1.704,0-3.096.552-4.176,1.656-1.056,1.104-1.584,2.748-1.584,4.932v8.856h-2.844Zm30.142.504c-1.776,0-3.336-.372-4.68-1.116-1.344-.768-2.388-1.836-3.132-3.204s-1.116-2.952-1.116-4.752v-.432c0-1.824.372-3.42,1.116-4.788s1.776-2.424,3.096-3.168c1.32-.768,2.832-1.152,4.536-1.152c1.656,0,3.12.36,4.392,1.08c1.272.696,2.268,1.704,2.988,3.024s1.08,2.868,1.08,4.644v1.296h-14.364c.072,1.896.684,3.384,1.836,4.464c1.152,1.056,2.592,1.584,4.32,1.584c1.512,0,2.676-.348,3.492-1.044s1.44-1.524,1.872-2.484l2.448,1.188c-.36.744-.864,1.488-1.512,2.232-.624.744-1.452,1.368-2.484,1.872-1.008.504-2.304.756-3.888.756Zm-6.048-10.908h11.448c-.096-1.632-.66-2.904-1.692-3.816-1.008-.912-2.304-1.368-3.888-1.368-1.608,0-2.928.456-3.96,1.368s-1.668,2.184-1.908,3.816Zm24.689,10.908c-1.224,0-2.34-.216-3.348-.648s-1.8-1.056-2.376-1.872-.864-1.812-.864-2.988c0-1.2.288-2.184.864-2.952.576-.792,1.368-1.38,2.376-1.764c1.008-.408,2.136-.612,3.384-.612h5.94v-1.296c0-1.248-.372-2.232-1.116-2.952-.72-.72-1.8-1.08-3.24-1.08-1.416,0-2.52.348-3.312,1.044-.792.672-1.332,1.584-1.62,2.736l-2.664-.864c.288-.984.744-1.872,1.368-2.664.624-.816,1.452-1.464,2.484-1.944c1.056-.504,2.316-.756,3.78-.756c2.256,0,4.008.588,5.256,1.764c1.248,1.152,1.872,2.784,1.872,4.896v7.956c0,.72.336,1.08,1.008,1.08h1.62v2.412h-2.484c-.792,0-1.428-.216-1.908-.648-.48-.456-.72-1.056-.72-1.8v-.18h-.432c-.264.456-.624.936-1.08,1.44-.432.48-1.032.876-1.8,1.188-.768.336-1.764.504-2.988.504Zm.324-2.448c1.68,0,3.036-.492,4.068-1.476c1.056-1.008,1.584-2.412,1.584-4.212v-.396h-5.832c-1.128,0-2.064.252-2.808.756-.72.48-1.08,1.212-1.08,2.196s.372,1.752,1.116,2.304c.768.552,1.752.828,2.952.828ZM222.871,155v-25.2h2.844v25.2h-2.844Zm15.304,0c-1.008,0-1.788-.276-2.34-.828-.528-.552-.792-1.308-.792-2.268v-12.024h-5.292v-2.484h5.292v-6.264h2.844v6.264h5.76v2.484h-5.76v11.592c0,.72.348,1.08,1.044,1.08h3.924v2.448h-4.68Zm10.079,0v-25.2h2.844v10.404h.504c.24-.528.6-1.02,1.08-1.476.504-.48,1.14-.876,1.908-1.188.792-.312,1.788-.468,2.988-.468c1.32,0,2.496.288,3.528.864c1.056.552,1.896,1.368,2.52,2.448.624,1.056.936,2.376.936,3.96v10.656h-2.844v-10.44c0-1.752-.444-3.024-1.332-3.816-.864-.792-2.04-1.188-3.528-1.188-1.704,0-3.096.552-4.176,1.656-1.056,1.104-1.584,2.748-1.584,4.932v8.856h-2.844Zm39.388.504c-1.776,0-3.336-.372-4.68-1.116-1.344-.768-2.388-1.836-3.132-3.204s-1.116-2.952-1.116-4.752v-.432c0-1.824.372-3.42,1.116-4.788s1.776-2.424,3.096-3.168c1.32-.768,2.832-1.152,4.536-1.152c1.656,0,3.12.36,4.392,1.08c1.272.696,2.268,1.704,2.988,3.024s1.08,2.868,1.08,4.644v1.296h-14.364c.072,1.896.684,3.384,1.836,4.464c1.152,1.056,2.592,1.584,4.32,1.584c1.512,0,2.676-.348,3.492-1.044s1.44-1.524,1.872-2.484l2.448,1.188c-.36.744-.864,1.488-1.512,2.232-.624.744-1.452,1.368-2.484,1.872-1.008.504-2.304.756-3.888.756Zm-6.048-10.908h11.448c-.096-1.632-.66-2.904-1.692-3.816-1.008-.912-2.304-1.368-3.888-1.368-1.608,0-2.928.456-3.96,1.368s-1.668,2.184-1.908,3.816ZM300.883,155v-17.604h2.772v2.988h.504c.384-.84,1.032-1.596,1.944-2.268.936-.696,2.304-1.044,4.104-1.044c1.32,0,2.496.276,3.528.828c1.056.552,1.896,1.368,2.52,2.448s.936,2.412.936,3.996v10.656h-2.844v-10.44c0-1.752-.444-3.024-1.332-3.816-.864-.792-2.04-1.188-3.528-1.188-1.704,0-3.096.552-4.176,1.656-1.056,1.104-1.584,2.748-1.584,4.932v8.856h-2.844Zm21.214-8.712v-.504c0-1.848.372-3.432,1.116-4.752s1.752-2.34,3.024-3.06s2.664-1.08,4.176-1.08c1.848,0,3.264.36,4.248,1.08c1.008.696,1.752,1.476,2.232,2.34h.504v-2.916h2.7v21.708c0,.96-.264,1.716-.792,2.268s-1.296.828-2.304.828h-11.952v-2.52h11.196c.72,0,1.08-.36,1.08-1.08v-6.696h-.504c-.288.528-.696,1.044-1.224,1.548s-1.212.924-2.052,1.26c-.84.312-1.884.468-3.132.468-1.512,0-2.904-.36-4.176-1.08s-2.28-1.74-3.024-3.06c-.744-1.344-1.116-2.928-1.116-4.752Zm9.072,6.372c1.824,0,3.3-.576,4.428-1.728c1.152-1.152,1.728-2.736,1.728-4.752v-.288c0-2.04-.576-3.624-1.728-4.752-1.128-1.152-2.604-1.728-4.428-1.728-1.8,0-3.288.576-4.464,1.728-1.152,1.128-1.728,2.712-1.728,4.752v.288c0,2.016.576,3.6,1.728,4.752c1.176,1.152,2.664,1.728,4.464,1.728Zm20.289,2.844c-1.224,0-2.34-.216-3.348-.648s-1.8-1.056-2.376-1.872-.864-1.812-.864-2.988c0-1.2.288-2.184.864-2.952.576-.792,1.368-1.38,2.376-1.764c1.008-.408,2.136-.612,3.384-.612h5.94v-1.296c0-1.248-.372-2.232-1.116-2.952-.72-.72-1.8-1.08-3.24-1.08-1.416,0-2.52.348-3.312,1.044-.792.672-1.332,1.584-1.62,2.736l-2.664-.864c.288-.984.744-1.872,1.368-2.664.624-.816,1.452-1.464,2.484-1.944c1.056-.504,2.316-.756,3.78-.756c2.256,0,4.008.588,5.256,1.764c1.248,1.152,1.872,2.784,1.872,4.896v7.956c0,.72.336,1.08,1.008,1.08h1.62v2.412h-2.484c-.792,0-1.428-.216-1.908-.648-.48-.456-.72-1.056-.72-1.8v-.18h-.432c-.264.456-.624.936-1.08,1.44-.432.48-1.032.876-1.8,1.188-.768.336-1.764.504-2.988.504Zm.324-2.448c1.68,0,3.036-.492,4.068-1.476c1.056-1.008,1.584-2.412,1.584-4.212v-.396h-5.832c-1.128,0-2.064.252-2.808.756-.72.48-1.08,1.212-1.08,2.196s.372,1.752,1.116,2.304c.768.552,1.752.828,2.952.828Zm13.627-6.768v-.504c0-1.848.372-3.432,1.116-4.752s1.752-2.34,3.024-3.06s2.664-1.08,4.176-1.08c1.848,0,3.264.36,4.248,1.08c1.008.696,1.752,1.476,2.232,2.34h.504v-2.916h2.7v21.708c0,.96-.264,1.716-.792,2.268s-1.296.828-2.304.828h-11.952v-2.52h11.196c.72,0,1.08-.36,1.08-1.08v-6.696h-.504c-.288.528-.696,1.044-1.224,1.548s-1.212.924-2.052,1.26c-.84.312-1.884.468-3.132.468-1.512,0-2.904-.36-4.176-1.08s-2.28-1.74-3.024-3.06c-.744-1.344-1.116-2.928-1.116-4.752Zm9.072,6.372c1.824,0,3.3-.576,4.428-1.728c1.152-1.152,1.728-2.736,1.728-4.752v-.288c0-2.04-.576-3.624-1.728-4.752-1.128-1.152-2.604-1.728-4.428-1.728-1.8,0-3.288.576-4.464,1.728-1.152,1.128-1.728,2.712-1.728,4.752v.288c0,2.016.576,3.6,1.728,4.752c1.176,1.152,2.664,1.728,4.464,1.728Zm22.954,2.844c-1.776,0-3.336-.372-4.68-1.116-1.344-.768-2.388-1.836-3.132-3.204s-1.116-2.952-1.116-4.752v-.432c0-1.824.372-3.42,1.116-4.788s1.776-2.424,3.096-3.168c1.32-.768,2.832-1.152,4.536-1.152c1.656,0,3.12.36,4.392,1.08c1.272.696,2.268,1.704,2.988,3.024s1.08,2.868,1.08,4.644v1.296h-14.364c.072,1.896.684,3.384,1.836,4.464c1.152,1.056,2.592,1.584,4.32,1.584c1.512,0,2.676-.348,3.492-1.044s1.44-1.524,1.872-2.484l2.448,1.188c-.36.744-.864,1.488-1.512,2.232-.624.744-1.452,1.368-2.484,1.872-1.008.504-2.304.756-3.888.756Zm-6.048-10.908h11.448c-.096-1.632-.66-2.904-1.692-3.816-1.008-.912-2.304-1.368-3.888-1.368-1.608,0-2.928.456-3.96,1.368s-1.668,2.184-1.908,3.816ZM410.676,155v-17.604h2.772v2.196h.504c.336-.624.888-1.2,1.656-1.728s1.848-.792,3.24-.792c1.368,0,2.472.3,3.312.9.864.6,1.488,1.332,1.872,2.196h.504c.408-.864,1.02-1.596,1.836-2.196.84-.6,2.004-.9,3.492-.9c1.176,0,2.208.24,3.096.72s1.584,1.176,2.088,2.088c.528.888.792,1.956.792,3.204v11.916h-2.844v-11.664c0-1.176-.348-2.1-1.044-2.772-.672-.696-1.62-1.044-2.844-1.044-1.296,0-2.364.42-3.204,1.26-.816.84-1.224,2.052-1.224,3.636v10.584h-2.844v-11.664c0-1.176-.348-2.1-1.044-2.772-.672-.696-1.62-1.044-2.844-1.044-1.296,0-2.364.42-3.204,1.26-.816.84-1.224,2.052-1.224,3.636v10.584h-2.844Zm39.036.504c-1.776,0-3.336-.372-4.68-1.116-1.344-.768-2.388-1.836-3.132-3.204s-1.116-2.952-1.116-4.752v-.432c0-1.824.372-3.42,1.116-4.788s1.776-2.424,3.096-3.168c1.32-.768,2.832-1.152,4.536-1.152c1.656,0,3.12.36,4.392,1.08c1.272.696,2.268,1.704,2.988,3.024s1.08,2.868,1.08,4.644v1.296h-14.364c.072,1.896.684,3.384,1.836,4.464c1.152,1.056,2.592,1.584,4.32,1.584c1.512,0,2.676-.348,3.492-1.044s1.44-1.524,1.872-2.484l2.448,1.188c-.36.744-.864,1.488-1.512,2.232-.624.744-1.452,1.368-2.484,1.872-1.008.504-2.304.756-3.888.756Zm-6.048-10.908h11.448c-.096-1.632-.66-2.904-1.692-3.816-1.008-.912-2.304-1.368-3.888-1.368-1.608,0-2.928.456-3.96,1.368s-1.668,2.184-1.908,3.816ZM462.953,155v-17.604h2.772v2.988h.504c.384-.84,1.032-1.596,1.944-2.268.936-.696,2.304-1.044,4.104-1.044c1.32,0,2.496.276,3.528.828c1.056.552,1.896,1.368,2.52,2.448s.936,2.412.936,3.996v10.656h-2.844v-10.44c0-1.752-.444-3.024-1.332-3.816-.864-.792-2.04-1.188-3.528-1.188-1.704,0-3.096.552-4.176,1.656-1.056,1.104-1.584,2.748-1.584,4.932v8.856h-2.844Zm28.066,0c-1.008,0-1.788-.276-2.34-.828-.528-.552-.792-1.308-.792-2.268v-12.024h-5.292v-2.484h5.292v-6.264h2.844v6.264h5.76v2.484h-5.76v11.592c0,.72.348,1.08,1.044,1.08h3.924v2.448h-4.68Zm27.569.504c-1.824,0-3.456-.324-4.896-.972s-2.58-1.62-3.42-2.916c-.816-1.32-1.224-2.964-1.224-4.932v-.756h2.988v.756c0,2.088.612,3.648,1.836,4.68c1.224,1.008,2.796,1.512,4.716,1.512c1.968,0,3.468-.444,4.5-1.332s1.548-2.004,1.548-3.348c0-.936-.24-1.68-.72-2.232-.456-.552-1.104-.996-1.944-1.332-.84-.36-1.824-.672-2.952-.936l-1.872-.468c-1.464-.384-2.76-.852-3.888-1.404s-2.016-1.272-2.664-2.16c-.624-.912-.936-2.076-.936-3.492s.348-2.64,1.044-3.672c.72-1.032,1.716-1.824,2.988-2.376c1.296-.552,2.784-.828,4.464-.828c1.704,0,3.228.3,4.572.9c1.368.576,2.436,1.44,3.204,2.592.792,1.128,1.188,2.556,1.188,4.284v1.512h-2.988v-1.512c0-1.224-.264-2.208-.792-2.952-.504-.744-1.212-1.296-2.124-1.656-.888-.36-1.908-.54-3.06-.54-1.656,0-2.988.372-3.996,1.116-1.008.72-1.512,1.752-1.512,3.096c0,.888.216,1.608.648,2.16s1.044,1.008,1.836,1.368c.792.336,1.74.636,2.844.9l1.872.468c1.464.312,2.772.744,3.924,1.296c1.176.528,2.112,1.26,2.808,2.196.696.912,1.044,2.112,1.044,3.6s-.372,2.784-1.116,3.888-1.8,1.968-3.168,2.592c-1.344.6-2.928.9-4.752.9ZM530.95,155v-2.7h3.528v-19.8h-3.528v-2.7h9.828c3.312,0,5.868.84,7.668,2.52c1.824,1.68,2.736,4.26,2.736,7.74v4.68c0,3.504-.912,6.096-2.736,7.776-1.8,1.656-4.356,2.484-7.668,2.484h-9.828Zm6.552-2.736h3.276c2.448,0,4.296-.6,5.544-1.8s1.872-3.06,1.872-5.58v-4.932c0-2.568-.624-4.44-1.872-5.616s-3.096-1.764-5.544-1.764h-3.276v19.692ZM556.009,155v-25.2h3.024v10.98h.504l10.656-10.98h4.032l-12.276,12.456L574.657,155h-4.14l-10.98-11.196h-.504v11.196h-3.024Z"/><rect width="289" height="148" rx="8" ry="8" transform="translate(-144-107)" fill="#fafff8"/><g id="eBIUQDH9dON9_ts" transform="translate(96.071582,282.291711) scale(1.5,1)"><rect width="289" height="148" rx="8" ry="8" transform="translate(-144.5,-74)" fill="#012d03"/></g><g id="eBIUQDH9dON10_ts" transform="translate(682.970908,-33) scale(2,1)"><rect width="289" height="148" rx="8" ry="8" transform="translate(-144.5,-74)" opacity="0.844565" fill="#d8d8d8"/></g></g><clipPath id="eBIUQDH9dON11"><rect width="835" height="240" rx="0" ry="0" fill="#fff"/></clipPath></g></svg>
