<svg width="835" height="240" viewBox="0 0 835 240" fill="none" xmlns="http://www.w3.org/2000/svg">
<g clip-path="url(#clip0_1_2)">
<rect width="835" height="240" fill="white"/>
<path d="M107.152 115.6C102.576 115.6 98.64 114.72 95.344 112.96C92.08 111.232 89.568 108.768 87.808 105.568C86.048 102.368 85.168 98.576 85.168 94.192V93.04C85.168 88.656 86.032 84.88 87.76 81.712C89.488 78.512 91.952 76.048 95.152 74.32C98.352 72.592 102.16 71.728 106.576 71.728H107.632C111.664 71.728 115.184 72.576 118.192 74.272C121.2 75.936 123.536 78.272 125.2 81.28C126.864 84.288 127.696 87.792 127.696 91.792V95.344C127.696 98.704 127.008 101.328 125.632 103.216C124.256 105.072 122.192 106 119.44 106H116.656C115.152 106 114 105.696 113.2 105.088C112.4 104.48 112 103.664 112 102.64V102.544H111.136C110.88 103.216 110.496 103.84 109.984 104.416C109.504 104.992 108.88 105.456 108.112 105.808C107.344 106.128 106.368 106.288 105.184 106.288C103.168 106.288 101.424 105.76 99.952 104.704C98.512 103.616 97.392 102.176 96.592 100.384C95.824 98.592 95.44 96.592 95.44 94.384V93.616C95.44 91.376 95.808 89.36 96.544 87.568C97.312 85.776 98.384 84.352 99.76 83.296C101.168 82.24 102.816 81.712 104.704 81.712C105.888 81.712 106.864 81.856 107.632 82.144C108.4 82.432 109.024 82.816 109.504 83.296C109.984 83.776 110.384 84.304 110.704 84.88H111.568V82H117.424V98.992C117.424 99.536 117.536 99.952 117.76 100.24C117.984 100.496 118.368 100.624 118.912 100.624H119.104C120.032 100.624 120.704 100.192 121.12 99.328C121.536 98.432 121.744 97.104 121.744 95.344V91.888C121.744 88.848 121.216 86.24 120.16 84.064C119.136 81.856 117.568 80.16 115.456 78.976C113.344 77.792 110.672 77.2 107.44 77.2H106.768C103.536 77.2 100.752 77.808 98.416 79.024C96.08 80.24 94.272 82.048 92.992 84.448C91.744 86.816 91.12 89.744 91.12 93.232V94C91.12 97.488 91.76 100.432 93.04 102.832C94.352 105.232 96.224 107.04 98.656 108.256C101.12 109.504 104.08 110.128 107.536 110.128H117.52V115.6H107.152ZM106.432 101.104C108 101.104 109.248 100.496 110.176 99.28C111.104 98.064 111.568 96.4 111.568 94.288V93.712C111.568 91.6 111.104 89.936 110.176 88.72C109.248 87.504 108 86.896 106.432 86.896C104.864 86.896 103.632 87.504 102.736 88.72C101.84 89.936 101.392 91.6 101.392 93.712V94.288C101.392 96.4 101.84 98.064 102.736 99.28C103.632 100.496 104.864 101.104 106.432 101.104ZM135.936 106L132.576 82.192H138.576L140.688 101.92H141.552L144.624 82.192H154.32L157.392 101.92H158.256L160.368 82.192H166.368L163.008 106H152.976L149.904 86.272H149.04L145.968 106H135.936ZM171.657 106V82.192H177.705V106H171.657ZM174.681 79.408C173.593 79.408 172.665 79.056 171.897 78.352C171.161 77.648 170.793 76.72 170.793 75.568C170.793 74.416 171.161 73.488 171.897 72.784C172.665 72.08 173.593 71.728 174.681 71.728C175.801 71.728 176.729 72.08 177.465 72.784C178.201 73.488 178.569 74.416 178.569 75.568C178.569 76.72 178.201 77.648 177.465 78.352C176.729 79.056 175.801 79.408 174.681 79.408ZM193.527 106C191.959 106 190.679 105.52 189.687 104.56C188.727 103.568 188.247 102.256 188.247 100.624V87.184H182.295V82.192H188.247V74.8H194.295V82.192H200.823V87.184H194.295V99.568C194.295 100.528 194.743 101.008 195.639 101.008H200.247V106H193.527ZM206.298 106V72.4H212.346V85.12H213.21C213.466 84.608 213.866 84.096 214.41 83.584C214.954 83.072 215.674 82.656 216.57 82.336C217.498 81.984 218.666 81.808 220.074 81.808C221.93 81.808 223.546 82.24 224.922 83.104C226.33 83.936 227.418 85.104 228.186 86.608C228.954 88.08 229.338 89.808 229.338 91.792V106H223.29V92.272C223.29 90.48 222.842 89.136 221.946 88.24C221.082 87.344 219.834 86.896 218.202 86.896C216.346 86.896 214.906 87.52 213.882 88.768C212.858 89.984 212.346 91.696 212.346 93.904V106H206.298ZM235.876 115.6V82.192H241.828V85.072H242.692C243.236 84.144 244.084 83.328 245.236 82.624C246.388 81.888 248.036 81.52 250.18 81.52C252.1 81.52 253.876 82 255.508 82.96C257.14 83.888 258.452 85.264 259.444 87.088C260.436 88.912 260.932 91.12 260.932 93.712V94.48C260.932 97.072 260.436 99.28 259.444 101.104C258.452 102.928 257.14 104.32 255.508 105.28C253.876 106.208 252.1 106.672 250.18 106.672C248.74 106.672 247.524 106.496 246.532 106.144C245.572 105.824 244.788 105.408 244.18 104.896C243.604 104.352 243.14 103.808 242.788 103.264H241.924V115.6H235.876ZM248.356 101.392C250.244 101.392 251.796 100.8 253.012 99.616C254.26 98.4 254.884 96.64 254.884 94.336V93.856C254.884 91.552 254.26 89.808 253.012 88.624C251.764 87.408 250.212 86.8 248.356 86.8C246.5 86.8 244.948 87.408 243.7 88.624C242.452 89.808 241.828 91.552 241.828 93.856V94.336C241.828 96.64 242.452 98.4 243.7 99.616C244.948 100.8 246.5 101.392 248.356 101.392ZM266.485 106V82.192H272.533V106H266.485ZM269.509 79.408C268.421 79.408 267.493 79.056 266.725 78.352C265.989 77.648 265.621 76.72 265.621 75.568C265.621 74.416 265.989 73.488 266.725 72.784C267.493 72.08 268.421 71.728 269.509 71.728C270.629 71.728 271.557 72.08 272.293 72.784C273.029 73.488 273.397 74.416 273.397 75.568C273.397 76.72 273.029 77.648 272.293 78.352C271.557 79.056 270.629 79.408 269.509 79.408ZM279.235 106V72.4H285.283V106H279.235ZM291.985 106V72.4H298.033V106H291.985ZM312.127 106.672C310.431 106.672 308.911 106.384 307.567 105.808C306.223 105.2 305.151 104.336 304.351 103.216C303.583 102.064 303.199 100.672 303.199 99.04C303.199 97.408 303.583 96.048 304.351 94.96C305.151 93.84 306.239 93.008 307.615 92.464C309.023 91.888 310.623 91.6 312.415 91.6H318.943V90.256C318.943 89.136 318.591 88.224 317.887 87.52C317.183 86.784 316.063 86.416 314.527 86.416C313.023 86.416 311.903 86.768 311.167 87.472C310.431 88.144 309.951 89.024 309.727 90.112L304.159 88.24C304.543 87.024 305.151 85.92 305.983 84.928C306.847 83.904 307.983 83.088 309.391 82.48C310.831 81.84 312.575 81.52 314.623 81.52C317.759 81.52 320.239 82.304 322.063 83.872C323.887 85.44 324.799 87.712 324.799 90.688V99.568C324.799 100.528 325.247 101.008 326.143 101.008H328.063V106H324.031C322.847 106 321.871 105.712 321.103 105.136C320.335 104.56 319.951 103.792 319.951 102.832V102.784H319.039C318.911 103.168 318.623 103.68 318.175 104.32C317.727 104.928 317.023 105.472 316.063 105.952C315.103 106.432 313.791 106.672 312.127 106.672ZM313.183 101.776C314.879 101.776 316.255 101.312 317.311 100.384C318.399 99.424 318.943 98.16 318.943 96.592V96.112H312.847C311.727 96.112 310.847 96.352 310.207 96.832C309.567 97.312 309.247 97.984 309.247 98.848C309.247 99.712 309.583 100.416 310.255 100.96C310.927 101.504 311.903 101.776 313.183 101.776ZM332.485 106V82.192H338.437V84.88H339.301C339.653 83.92 340.229 83.216 341.029 82.768C341.861 82.32 342.821 82.096 343.909 82.096H346.789V87.472H343.813C342.277 87.472 341.013 87.888 340.021 88.72C339.029 89.52 338.533 90.768 338.533 92.464V106H332.485ZM345.748 115.6L359.86 72.4H365.908L351.796 115.6H345.748ZM377.904 106.672C374.8 106.672 372.256 106 370.272 104.656C368.288 103.312 367.088 101.392 366.672 98.896L372.24 97.456C372.464 98.576 372.832 99.456 373.344 100.096C373.888 100.736 374.544 101.2 375.312 101.488C376.112 101.744 376.976 101.872 377.904 101.872C379.312 101.872 380.352 101.632 381.024 101.152C381.696 100.64 382.032 100.016 382.032 99.28C382.032 98.544 381.712 97.984 381.072 97.6C380.432 97.184 379.408 96.848 378 96.592L376.656 96.352C374.992 96.032 373.472 95.6 372.096 95.056C370.72 94.48 369.616 93.696 368.784 92.704C367.952 91.712 367.536 90.432 367.536 88.864C367.536 86.496 368.4 84.688 370.128 83.44C371.856 82.16 374.128 81.52 376.944 81.52C379.6 81.52 381.808 82.112 383.568 83.296C385.328 84.48 386.48 86.032 387.024 87.952L381.408 89.68C381.152 88.464 380.624 87.6 379.824 87.088C379.056 86.576 378.096 86.32 376.944 86.32C375.792 86.32 374.912 86.528 374.304 86.944C373.696 87.328 373.392 87.872 373.392 88.576C373.392 89.344 373.712 89.92 374.352 90.304C374.992 90.656 375.856 90.928 376.944 91.12L378.288 91.36C380.08 91.68 381.696 92.112 383.136 92.656C384.608 93.168 385.76 93.92 386.592 94.912C387.456 95.872 387.888 97.184 387.888 98.848C387.888 101.344 386.976 103.28 385.152 104.656C383.36 106 380.944 106.672 377.904 106.672ZM402.788 106.672C400.9 106.672 399.124 106.208 397.46 105.28C395.828 104.32 394.516 102.928 393.524 101.104C392.532 99.28 392.036 97.072 392.036 94.48V93.712C392.036 91.12 392.532 88.912 393.524 87.088C394.516 85.264 395.828 83.888 397.46 82.96C399.092 82 400.868 81.52 402.788 81.52C404.228 81.52 405.428 81.696 406.388 82.048C407.38 82.368 408.18 82.784 408.788 83.296C409.396 83.808 409.86 84.352 410.18 84.928H411.044V72.4H417.092V106H411.14V103.12H410.276C409.732 104.016 408.884 104.832 407.732 105.568C406.612 106.304 404.964 106.672 402.788 106.672ZM404.612 101.392C406.468 101.392 408.02 100.8 409.268 99.616C410.516 98.4 411.14 96.64 411.14 94.336V93.856C411.14 91.552 410.516 89.808 409.268 88.624C408.052 87.408 406.5 86.8 404.612 86.8C402.756 86.8 401.204 87.408 399.956 88.624C398.708 89.808 398.084 91.552 398.084 93.856V94.336C398.084 96.64 398.708 98.4 399.956 99.616C401.204 100.8 402.756 101.392 404.612 101.392ZM423.798 106V72.4H429.846V90.976H430.71L438.582 82.192H446.454L435.462 93.712L446.838 106H439.062L430.71 96.544H429.846V106H423.798Z" fill="#014804"/>
<path d="M91.072 155V132.536H82.972V129.8H102.196V132.536H94.096V155H91.072ZM106.152 155V129.8H108.996V140.204H109.5C109.74 139.676 110.1 139.184 110.58 138.728C111.084 138.248 111.72 137.852 112.488 137.54C113.28 137.228 114.276 137.072 115.476 137.072C116.796 137.072 117.972 137.36 119.004 137.936C120.06 138.488 120.9 139.304 121.524 140.384C122.148 141.44 122.46 142.76 122.46 144.344V155H119.616V144.56C119.616 142.808 119.172 141.536 118.284 140.744C117.42 139.952 116.244 139.556 114.756 139.556C113.052 139.556 111.66 140.108 110.58 141.212C109.524 142.316 108.996 143.96 108.996 146.144V155H106.152ZM136.294 155.504C134.518 155.504 132.958 155.132 131.614 154.388C130.27 153.62 129.226 152.552 128.482 151.184C127.738 149.816 127.366 148.232 127.366 146.432V146C127.366 144.176 127.738 142.58 128.482 141.212C129.226 139.844 130.258 138.788 131.578 138.044C132.898 137.276 134.41 136.892 136.114 136.892C137.77 136.892 139.234 137.252 140.506 137.972C141.778 138.668 142.774 139.676 143.494 140.996C144.214 142.316 144.574 143.864 144.574 145.64V146.936H130.21C130.282 148.832 130.894 150.32 132.046 151.4C133.198 152.456 134.638 152.984 136.366 152.984C137.878 152.984 139.042 152.636 139.858 151.94C140.674 151.244 141.298 150.416 141.73 149.456L144.178 150.644C143.818 151.388 143.314 152.132 142.666 152.876C142.042 153.62 141.214 154.244 140.182 154.748C139.174 155.252 137.878 155.504 136.294 155.504ZM130.246 144.596H141.694C141.598 142.964 141.034 141.692 140.002 140.78C138.994 139.868 137.698 139.412 136.114 139.412C134.506 139.412 133.186 139.868 132.154 140.78C131.122 141.692 130.486 142.964 130.246 144.596ZM158.781 155V129.8H161.625V140.204H162.129C162.369 139.676 162.729 139.184 163.209 138.728C163.713 138.248 164.349 137.852 165.117 137.54C165.909 137.228 166.905 137.072 168.105 137.072C169.425 137.072 170.601 137.36 171.633 137.936C172.689 138.488 173.529 139.304 174.153 140.384C174.777 141.44 175.089 142.76 175.089 144.344V155H172.245V144.56C172.245 142.808 171.801 141.536 170.913 140.744C170.049 139.952 168.873 139.556 167.385 139.556C165.681 139.556 164.289 140.108 163.209 141.212C162.153 142.316 161.625 143.96 161.625 146.144V155H158.781ZM188.923 155.504C187.147 155.504 185.587 155.132 184.243 154.388C182.899 153.62 181.855 152.552 181.111 151.184C180.367 149.816 179.995 148.232 179.995 146.432V146C179.995 144.176 180.367 142.58 181.111 141.212C181.855 139.844 182.887 138.788 184.207 138.044C185.527 137.276 187.039 136.892 188.743 136.892C190.399 136.892 191.863 137.252 193.135 137.972C194.407 138.668 195.403 139.676 196.123 140.996C196.843 142.316 197.203 143.864 197.203 145.64V146.936H182.839C182.911 148.832 183.523 150.32 184.675 151.4C185.827 152.456 187.267 152.984 188.995 152.984C190.507 152.984 191.671 152.636 192.487 151.94C193.303 151.244 193.927 150.416 194.359 149.456L196.807 150.644C196.447 151.388 195.943 152.132 195.295 152.876C194.671 153.62 193.843 154.244 192.811 154.748C191.803 155.252 190.507 155.504 188.923 155.504ZM182.875 144.596H194.323C194.227 142.964 193.663 141.692 192.631 140.78C191.623 139.868 190.327 139.412 188.743 139.412C187.135 139.412 185.815 139.868 184.783 140.78C183.751 141.692 183.115 142.964 182.875 144.596ZM207.564 155.504C206.34 155.504 205.224 155.288 204.216 154.856C203.208 154.424 202.416 153.8 201.84 152.984C201.264 152.168 200.976 151.172 200.976 149.996C200.976 148.796 201.264 147.812 201.84 147.044C202.416 146.252 203.208 145.664 204.216 145.28C205.224 144.872 206.352 144.668 207.6 144.668H213.54V143.372C213.54 142.124 213.168 141.14 212.424 140.42C211.704 139.7 210.624 139.34 209.184 139.34C207.768 139.34 206.664 139.688 205.872 140.384C205.08 141.056 204.54 141.968 204.252 143.12L201.588 142.256C201.876 141.272 202.332 140.384 202.956 139.592C203.58 138.776 204.408 138.128 205.44 137.648C206.496 137.144 207.756 136.892 209.22 136.892C211.476 136.892 213.228 137.48 214.476 138.656C215.724 139.808 216.348 141.44 216.348 143.552V151.508C216.348 152.228 216.684 152.588 217.356 152.588H218.976V155H216.492C215.7 155 215.064 154.784 214.584 154.352C214.104 153.896 213.864 153.296 213.864 152.552V152.372H213.432C213.168 152.828 212.808 153.308 212.352 153.812C211.92 154.292 211.32 154.688 210.552 155C209.784 155.336 208.788 155.504 207.564 155.504ZM207.888 153.056C209.568 153.056 210.924 152.564 211.956 151.58C213.012 150.572 213.54 149.168 213.54 147.368V146.972H207.708C206.58 146.972 205.644 147.224 204.9 147.728C204.18 148.208 203.82 148.94 203.82 149.924C203.82 150.908 204.192 151.676 204.936 152.228C205.704 152.78 206.688 153.056 207.888 153.056ZM222.871 155V129.8H225.715V155H222.871ZM238.175 155C237.167 155 236.387 154.724 235.835 154.172C235.307 153.62 235.043 152.864 235.043 151.904V139.88H229.751V137.396H235.043V131.132H237.887V137.396H243.647V139.88H237.887V151.472C237.887 152.192 238.235 152.552 238.931 152.552H242.855V155H238.175ZM248.254 155V129.8H251.098V140.204H251.602C251.842 139.676 252.202 139.184 252.682 138.728C253.186 138.248 253.822 137.852 254.59 137.54C255.382 137.228 256.378 137.072 257.578 137.072C258.898 137.072 260.074 137.36 261.106 137.936C262.162 138.488 263.002 139.304 263.626 140.384C264.25 141.44 264.562 142.76 264.562 144.344V155H261.718V144.56C261.718 142.808 261.274 141.536 260.386 140.744C259.522 139.952 258.346 139.556 256.858 139.556C255.154 139.556 253.762 140.108 252.682 141.212C251.626 142.316 251.098 143.96 251.098 146.144V155H248.254ZM287.642 155.504C285.866 155.504 284.306 155.132 282.962 154.388C281.618 153.62 280.574 152.552 279.83 151.184C279.086 149.816 278.714 148.232 278.714 146.432V146C278.714 144.176 279.086 142.58 279.83 141.212C280.574 139.844 281.606 138.788 282.926 138.044C284.246 137.276 285.758 136.892 287.462 136.892C289.118 136.892 290.582 137.252 291.854 137.972C293.126 138.668 294.122 139.676 294.842 140.996C295.562 142.316 295.922 143.864 295.922 145.64V146.936H281.558C281.63 148.832 282.242 150.32 283.394 151.4C284.546 152.456 285.986 152.984 287.714 152.984C289.226 152.984 290.39 152.636 291.206 151.94C292.022 151.244 292.646 150.416 293.078 149.456L295.526 150.644C295.166 151.388 294.662 152.132 294.014 152.876C293.39 153.62 292.562 154.244 291.53 154.748C290.522 155.252 289.226 155.504 287.642 155.504ZM281.594 144.596H293.042C292.946 142.964 292.382 141.692 291.35 140.78C290.342 139.868 289.046 139.412 287.462 139.412C285.854 139.412 284.534 139.868 283.502 140.78C282.47 141.692 281.834 142.964 281.594 144.596ZM300.883 155V137.396H303.655V140.384H304.159C304.543 139.544 305.191 138.788 306.103 138.116C307.039 137.42 308.407 137.072 310.207 137.072C311.527 137.072 312.703 137.348 313.735 137.9C314.791 138.452 315.631 139.268 316.255 140.348C316.879 141.428 317.191 142.76 317.191 144.344V155H314.347V144.56C314.347 142.808 313.903 141.536 313.015 140.744C312.151 139.952 310.975 139.556 309.487 139.556C307.783 139.556 306.391 140.108 305.311 141.212C304.255 142.316 303.727 143.96 303.727 146.144V155H300.883ZM322.097 146.288V145.784C322.097 143.936 322.469 142.352 323.213 141.032C323.957 139.712 324.965 138.692 326.237 137.972C327.509 137.252 328.901 136.892 330.413 136.892C332.261 136.892 333.677 137.252 334.661 137.972C335.669 138.668 336.413 139.448 336.893 140.312H337.397V137.396H340.097V159.104C340.097 160.064 339.833 160.82 339.305 161.372C338.777 161.924 338.009 162.2 337.001 162.2H325.049V159.68H336.245C336.965 159.68 337.325 159.32 337.325 158.6V151.904H336.821C336.533 152.432 336.125 152.948 335.597 153.452C335.069 153.956 334.385 154.376 333.545 154.712C332.705 155.024 331.661 155.18 330.413 155.18C328.901 155.18 327.509 154.82 326.237 154.1C324.965 153.38 323.957 152.36 323.213 151.04C322.469 149.696 322.097 148.112 322.097 146.288ZM331.169 152.66C332.993 152.66 334.469 152.084 335.597 150.932C336.749 149.78 337.325 148.196 337.325 146.18V145.892C337.325 143.852 336.749 142.268 335.597 141.14C334.469 139.988 332.993 139.412 331.169 139.412C329.369 139.412 327.881 139.988 326.705 141.14C325.553 142.268 324.977 143.852 324.977 145.892V146.18C324.977 148.196 325.553 149.78 326.705 150.932C327.881 152.084 329.369 152.66 331.169 152.66ZM351.458 155.504C350.234 155.504 349.118 155.288 348.11 154.856C347.102 154.424 346.31 153.8 345.734 152.984C345.158 152.168 344.87 151.172 344.87 149.996C344.87 148.796 345.158 147.812 345.734 147.044C346.31 146.252 347.102 145.664 348.11 145.28C349.118 144.872 350.246 144.668 351.494 144.668H357.434V143.372C357.434 142.124 357.062 141.14 356.318 140.42C355.598 139.7 354.518 139.34 353.078 139.34C351.662 139.34 350.558 139.688 349.766 140.384C348.974 141.056 348.434 141.968 348.146 143.12L345.482 142.256C345.77 141.272 346.226 140.384 346.85 139.592C347.474 138.776 348.302 138.128 349.334 137.648C350.39 137.144 351.65 136.892 353.114 136.892C355.37 136.892 357.122 137.48 358.37 138.656C359.618 139.808 360.242 141.44 360.242 143.552V151.508C360.242 152.228 360.578 152.588 361.25 152.588H362.87V155H360.386C359.594 155 358.958 154.784 358.478 154.352C357.998 153.896 357.758 153.296 357.758 152.552V152.372H357.326C357.062 152.828 356.702 153.308 356.246 153.812C355.814 154.292 355.214 154.688 354.446 155C353.678 155.336 352.682 155.504 351.458 155.504ZM351.782 153.056C353.462 153.056 354.818 152.564 355.85 151.58C356.906 150.572 357.434 149.168 357.434 147.368V146.972H351.602C350.474 146.972 349.538 147.224 348.794 147.728C348.074 148.208 347.714 148.94 347.714 149.924C347.714 150.908 348.086 151.676 348.83 152.228C349.598 152.78 350.582 153.056 351.782 153.056ZM365.409 146.288V145.784C365.409 143.936 365.781 142.352 366.525 141.032C367.269 139.712 368.277 138.692 369.549 137.972C370.821 137.252 372.213 136.892 373.725 136.892C375.573 136.892 376.989 137.252 377.973 137.972C378.981 138.668 379.725 139.448 380.205 140.312H380.709V137.396H383.409V159.104C383.409 160.064 383.145 160.82 382.617 161.372C382.089 161.924 381.321 162.2 380.313 162.2H368.361V159.68H379.557C380.277 159.68 380.637 159.32 380.637 158.6V151.904H380.133C379.845 152.432 379.437 152.948 378.909 153.452C378.381 153.956 377.697 154.376 376.857 154.712C376.017 155.024 374.973 155.18 373.725 155.18C372.213 155.18 370.821 154.82 369.549 154.1C368.277 153.38 367.269 152.36 366.525 151.04C365.781 149.696 365.409 148.112 365.409 146.288ZM374.481 152.66C376.305 152.66 377.781 152.084 378.909 150.932C380.061 149.78 380.637 148.196 380.637 146.18V145.892C380.637 143.852 380.061 142.268 378.909 141.14C377.781 139.988 376.305 139.412 374.481 139.412C372.681 139.412 371.193 139.988 370.017 141.14C368.865 142.268 368.289 143.852 368.289 145.892V146.18C368.289 148.196 368.865 149.78 370.017 150.932C371.193 152.084 372.681 152.66 374.481 152.66ZM397.435 155.504C395.659 155.504 394.099 155.132 392.755 154.388C391.411 153.62 390.367 152.552 389.623 151.184C388.879 149.816 388.507 148.232 388.507 146.432V146C388.507 144.176 388.879 142.58 389.623 141.212C390.367 139.844 391.399 138.788 392.719 138.044C394.039 137.276 395.551 136.892 397.255 136.892C398.911 136.892 400.375 137.252 401.647 137.972C402.919 138.668 403.915 139.676 404.635 140.996C405.355 142.316 405.715 143.864 405.715 145.64V146.936H391.351C391.423 148.832 392.035 150.32 393.187 151.4C394.339 152.456 395.779 152.984 397.507 152.984C399.019 152.984 400.183 152.636 400.999 151.94C401.815 151.244 402.439 150.416 402.871 149.456L405.319 150.644C404.959 151.388 404.455 152.132 403.807 152.876C403.183 153.62 402.355 154.244 401.323 154.748C400.315 155.252 399.019 155.504 397.435 155.504ZM391.387 144.596H402.835C402.739 142.964 402.175 141.692 401.143 140.78C400.135 139.868 398.839 139.412 397.255 139.412C395.647 139.412 394.327 139.868 393.295 140.78C392.263 141.692 391.627 142.964 391.387 144.596ZM410.676 155V137.396H413.448V139.592H413.952C414.288 138.968 414.84 138.392 415.608 137.864C416.376 137.336 417.456 137.072 418.848 137.072C420.216 137.072 421.32 137.372 422.16 137.972C423.024 138.572 423.648 139.304 424.032 140.168H424.536C424.944 139.304 425.556 138.572 426.372 137.972C427.212 137.372 428.376 137.072 429.864 137.072C431.04 137.072 432.072 137.312 432.96 137.792C433.848 138.272 434.544 138.968 435.048 139.88C435.576 140.768 435.84 141.836 435.84 143.084V155H432.996V143.336C432.996 142.16 432.648 141.236 431.952 140.564C431.28 139.868 430.332 139.52 429.108 139.52C427.812 139.52 426.744 139.94 425.904 140.78C425.088 141.62 424.68 142.832 424.68 144.416V155H421.836V143.336C421.836 142.16 421.488 141.236 420.792 140.564C420.12 139.868 419.172 139.52 417.948 139.52C416.652 139.52 415.584 139.94 414.744 140.78C413.928 141.62 413.52 142.832 413.52 144.416V155H410.676ZM449.712 155.504C447.936 155.504 446.376 155.132 445.032 154.388C443.688 153.62 442.644 152.552 441.9 151.184C441.156 149.816 440.784 148.232 440.784 146.432V146C440.784 144.176 441.156 142.58 441.9 141.212C442.644 139.844 443.676 138.788 444.996 138.044C446.316 137.276 447.828 136.892 449.532 136.892C451.188 136.892 452.652 137.252 453.924 137.972C455.196 138.668 456.192 139.676 456.912 140.996C457.632 142.316 457.992 143.864 457.992 145.64V146.936H443.628C443.7 148.832 444.312 150.32 445.464 151.4C446.616 152.456 448.056 152.984 449.784 152.984C451.296 152.984 452.46 152.636 453.276 151.94C454.092 151.244 454.716 150.416 455.148 149.456L457.596 150.644C457.236 151.388 456.732 152.132 456.084 152.876C455.46 153.62 454.632 154.244 453.6 154.748C452.592 155.252 451.296 155.504 449.712 155.504ZM443.664 144.596H455.112C455.016 142.964 454.452 141.692 453.42 140.78C452.412 139.868 451.116 139.412 449.532 139.412C447.924 139.412 446.604 139.868 445.572 140.78C444.54 141.692 443.904 142.964 443.664 144.596ZM462.953 155V137.396H465.725V140.384H466.229C466.613 139.544 467.261 138.788 468.173 138.116C469.109 137.42 470.477 137.072 472.277 137.072C473.597 137.072 474.773 137.348 475.805 137.9C476.861 138.452 477.701 139.268 478.325 140.348C478.949 141.428 479.261 142.76 479.261 144.344V155H476.417V144.56C476.417 142.808 475.973 141.536 475.085 140.744C474.221 139.952 473.045 139.556 471.557 139.556C469.853 139.556 468.461 140.108 467.381 141.212C466.325 142.316 465.797 143.96 465.797 146.144V155H462.953ZM491.019 155C490.011 155 489.231 154.724 488.679 154.172C488.151 153.62 487.887 152.864 487.887 151.904V139.88H482.595V137.396H487.887V131.132H490.731V137.396H496.491V139.88H490.731V151.472C490.731 152.192 491.079 152.552 491.775 152.552H495.699V155H491.019ZM518.588 155.504C516.764 155.504 515.132 155.18 513.692 154.532C512.252 153.884 511.112 152.912 510.272 151.616C509.456 150.296 509.048 148.652 509.048 146.684V145.928H512.036V146.684C512.036 148.772 512.648 150.332 513.872 151.364C515.096 152.372 516.668 152.876 518.588 152.876C520.556 152.876 522.056 152.432 523.088 151.544C524.12 150.656 524.636 149.54 524.636 148.196C524.636 147.26 524.396 146.516 523.916 145.964C523.46 145.412 522.812 144.968 521.972 144.632C521.132 144.272 520.148 143.96 519.02 143.696L517.148 143.228C515.684 142.844 514.388 142.376 513.26 141.824C512.132 141.272 511.244 140.552 510.596 139.664C509.972 138.752 509.66 137.588 509.66 136.172C509.66 134.756 510.008 133.532 510.704 132.5C511.424 131.468 512.42 130.676 513.692 130.124C514.988 129.572 516.476 129.296 518.156 129.296C519.86 129.296 521.384 129.596 522.728 130.196C524.096 130.772 525.164 131.636 525.932 132.788C526.724 133.916 527.12 135.344 527.12 137.072V138.584H524.132V137.072C524.132 135.848 523.868 134.864 523.34 134.12C522.836 133.376 522.128 132.824 521.216 132.464C520.328 132.104 519.308 131.924 518.156 131.924C516.5 131.924 515.168 132.296 514.16 133.04C513.152 133.76 512.648 134.792 512.648 136.136C512.648 137.024 512.864 137.744 513.296 138.296C513.728 138.848 514.34 139.304 515.132 139.664C515.924 140 516.872 140.3 517.976 140.564L519.848 141.032C521.312 141.344 522.62 141.776 523.772 142.328C524.948 142.856 525.884 143.588 526.58 144.524C527.276 145.436 527.624 146.636 527.624 148.124C527.624 149.612 527.252 150.908 526.508 152.012C525.764 153.116 524.708 153.98 523.34 154.604C521.996 155.204 520.412 155.504 518.588 155.504ZM530.95 155V152.3H534.478V132.5H530.95V129.8H540.778C544.09 129.8 546.646 130.64 548.446 132.32C550.27 134 551.182 136.58 551.182 140.06V144.74C551.182 148.244 550.27 150.836 548.446 152.516C546.646 154.172 544.09 155 540.778 155H530.95ZM537.502 152.264H540.778C543.226 152.264 545.074 151.664 546.322 150.464C547.57 149.264 548.194 147.404 548.194 144.884V139.952C548.194 137.384 547.57 135.512 546.322 134.336C545.074 133.16 543.226 132.572 540.778 132.572H537.502V152.264ZM556.009 155V129.8H559.033V140.78H559.537L570.193 129.8H574.225L561.949 142.256L574.657 155H570.517L559.537 143.804H559.033V155H556.009Z" fill="black"/>
<rect x="-70" y="202" width="289" height="148" rx="8" fill="#012D03"/>
<circle cx="702.174" cy="134.366" r="9.67391" fill="#012D03" stroke="#012D03"/>
<circle cx="808.273" cy="31.1739" r="9.67391" fill="#180000" stroke="#012D03"/>
<circle cx="828.621" cy="163.435" r="9.67391" fill="#180000" stroke="#012D03"/>
<circle cx="798.099" cy="76.2298" r="9.67391" fill="#012D03" stroke="#012D03"/>
<circle cx="809" cy="133.64" r="105.326" stroke="#012D03" stroke-width="3"/>
<circle cx="793.012" cy="135.093" r="63.177" stroke="#012D03" stroke-width="3"/>
<circle cx="804.64" cy="143.814" r="31.2019" stroke="#012D03" stroke-width="3"/>
</g>
<defs>
<clipPath id="clip0_1_2">
<rect width="835" height="240" fill="white"/>
</clipPath>
</defs>
</svg>
